<?xml version="1.0" standalone="no"?>
<!DOCTYPE svg PUBLIC "-//W3C//DTD SVG 20010904//EN"
 "http://www.w3.org/TR/2001/REC-SVG-20010904/DTD/svg10.dtd">
<svg version="1.0" xmlns="http://www.w3.org/2000/svg"
 width="300.000000pt" height="300.000000pt" viewBox="0 0 300.000000 300.000000"
 preserveAspectRatio="xMidYMid meet">
<metadata>
Created by potrace 1.11, written by Peter Selinger 2001-2013
</metadata>
<g transform="translate(0.000000,300.000000) scale(0.100000,-0.100000)"
fill="#000000" stroke="none">
<path d="M1297 2984 c-180 -25 -332 -74 -499 -161 -123 -63 -235 -145 -341
-250 -212 -209 -337 -429 -417 -733 -46 -175 -48 -442 -5 -659 16 -82 69 -235
114 -331 192 -406 613 -736 1041 -817 141 -26 191 -31 335 -29 246 4 416 46
640 157 342 170 591 443 733 804 69 176 96 321 97 525 0 152 -9 239 -34 345
-108 444 -391 804 -786 1000 -116 58 -240 105 -314 121 -190 39 -411 50 -564
28z m429 -43 c213 -32 444 -128 627 -259 104 -74 257 -226 328 -328 135 -189
237 -440 265 -654 14 -108 6 -442 -11 -471 -4 -5 -7 -18 -21 -86 -14 -70 -71
-217 -121 -313 -75 -143 -150 -245 -264 -359 -230 -230 -482 -356 -834 -416
-60 -11 -282 -14 -345 -5 -121 17 -147 22 -205 36 -357 88 -678 321 -878 636
-102 161 -169 337 -209 548 -16 88 -17 334 -2 438 71 474 366 882 792 1096
149 75 320 127 467 142 33 4 61 8 63 9 8 7 284 -4 348 -14z"/>
<path d="M1112 2514 c-139 -83 -111 -376 46 -479 85 -55 179 -33 230 53 24 42
27 56 26 137 0 71 -5 101 -23 140 -65 146 -181 207 -279 149z"/>
<path d="M1773 2530 c-107 -25 -193 -170 -189 -315 5 -198 163 -278 293 -149
180 180 105 515 -104 464z"/>
<path d="M742 2093 c-136 -67 -122 -294 24 -379 77 -45 142 -39 202 19 98 94
51 286 -88 357 -47 24 -94 25 -138 3z"/>
<path d="M2123 2094 c-42 -18 -95 -71 -118 -120 -27 -53 -27 -167 -1 -209 69
-115 236 -100 311 29 102 174 -25 373 -192 300z"/>
<path d="M1433 1889 c-164 -31 -381 -217 -477 -409 -38 -74 -65 -185 -59 -240
8 -85 54 -158 113 -182 34 -14 122 -17 200 -7 118 16 144 19 200 28 68 11 166
6 285 -15 143 -25 243 -26 295 -3 50 22 63 37 92 99 80 170 -78 475 -333 646
-113 75 -215 102 -316 83z"/>
<path d="M643 884 c-8 -4 -8 -11 1 -29 8 -15 11 -70 10 -169 -3 -141 -2 -146
17 -136 16 9 19 22 19 84 l0 74 58 10 c65 12 152 48 152 64 0 6 7 16 15 22 26
19 7 53 -39 69 -39 14 -208 21 -233 11z m192 -19 c17 -3 36 -14 43 -25 27 -44
-40 -95 -136 -104 l-52 -4 0 68 0 69 33 3 c32 4 57 2 112 -7z"/>
<path d="M1542 884 c-10 -5 -10 -9 -1 -20 12 -15 15 -295 4 -314 -8 -13 2 -13
25 0 16 8 19 21 18 80 -1 39 1 73 4 75 2 2 22 7 44 10 77 12 164 49 164 71 0
8 5 14 10 14 6 0 10 13 10 30 0 24 -5 31 -27 36 -16 4 -32 10 -38 14 -12 8
-195 11 -213 4z m227 -38 c37 -33 -12 -88 -95 -106 -71 -15 -78 -12 -84 40 -8
69 -2 88 29 92 50 6 130 -8 150 -26z"/>
<path d="M952 763 c-18 -7 -30 -18 -27 -23 9 -14 22 -12 52 7 45 30 113 6 113
-39 0 -19 -1 -20 -42 -23 -83 -6 -168 -68 -147 -107 18 -33 52 -42 121 -31 35
6 65 7 68 3 7 -10 53 8 46 18 -3 5 -6 36 -7 68 -1 83 -14 120 -48 133 -33 14
-85 12 -129 -6z m140 -134 c5 -35 -12 -53 -67 -65 -49 -12 -82 1 -88 33 -5 28
16 48 62 60 58 15 88 6 93 -28z"/>
<path d="M1172 767 c-7 -8 -4 -25 10 -57 11 -25 23 -47 27 -50 3 -3 15 -31 25
-62 11 -32 23 -58 27 -58 13 0 36 41 48 85 16 57 26 71 36 48 4 -10 9 -23 10
-29 8 -33 17 -54 26 -54 6 0 8 -4 5 -8 -2 -4 -1 -14 4 -22 12 -19 44 -2 48 26
2 10 15 56 29 101 25 78 26 110 2 86 -6 -6 -17 -39 -25 -74 -20 -89 -19 -88
-26 -94 -6 -7 -47 94 -55 135 -10 55 -53 53 -51 -2 1 -40 -30 -140 -42 -133
-11 7 -41 95 -32 95 4 0 1 4 -7 9 -8 5 -16 17 -17 26 -7 44 -22 56 -42 32z"/>
<path d="M1853 767 c-34 -10 -41 -21 -23 -32 6 -4 23 1 38 11 48 32 116 12
119 -36 1 -11 1 -20 0 -20 -1 -1 -20 -3 -42 -6 -101 -12 -181 -80 -142 -119
23 -23 69 -28 128 -16 37 8 55 8 57 1 3 -7 10 -7 23 1 17 9 19 18 15 82 -2 40
-7 84 -11 99 -12 45 -78 59 -162 35z m115 -106 c18 -1 22 -7 22 -32 0 -38 -14
-53 -65 -65 -68 -18 -112 18 -81 64 11 18 65 41 85 37 9 -2 26 -4 39 -4z"/>
<path d="M2070 770 c-12 -7 -10 -16 10 -59 13 -28 27 -51 32 -51 5 0 7 -4 4
-9 -3 -4 4 -31 16 -59 27 -65 47 -58 73 28 20 66 34 72 50 19 15 -49 37 -89
47 -89 13 0 39 27 36 37 -1 4 5 28 12 53 8 25 14 47 15 50 0 3 7 22 14 43 7
21 10 41 7 44 -10 10 -36 -19 -36 -41 0 -11 -9 -48 -19 -81 l-19 -60 -17 40
c-9 22 -22 63 -29 90 -10 38 -18 50 -32 50 -14 0 -19 -8 -21 -30 -2 -41 -9
-69 -24 -97 -7 -13 -12 -24 -11 -25 5 -8 1 -23 -6 -23 -4 0 -16 25 -27 55 -10
30 -22 55 -26 55 -4 0 -9 14 -11 32 -3 34 -15 43 -38 28z"/>
</g>
</svg>
